<?xml version="1.0" standalone="no"?><!DOCTYPE svg PUBLIC "-//W3C//DTD SVG 1.1//EN" "http://www.w3.org/Graphics/SVG/1.1/DTD/svg11.dtd"><svg class="icon" width="200px" height="200.00px" viewBox="0 0 1024 1024" version="1.1" xmlns="http://www.w3.org/2000/svg"><path fill="#cdcdcd" d="M512 217.6l44.8-44.8c99.2-102.4 262.4-102.4 361.6 0 99.2 102.4 99.2 265.6 0 368l-361.6 368C544 921.6 528 928 512 928s-32-6.4-44.8-19.2l-361.6-368c-99.2-102.4-99.2-265.6 0-368 99.2-102.4 262.4-102.4 361.6 0l44.8 44.8zM873.6 496c73.6-76.8 73.6-198.4 0-275.2a185.6 185.6 0 0 0-268.8 0L534.4 288c-12.8 12.8-32 12.8-44.8 0l-67.2-70.4a185.6 185.6 0 0 0-268.8 0C80 294.4 80 416 153.6 492.8L512 864l361.6-368z" /></svg>